<svg xmlns="http://www.w3.org/2000/svg" viewBox="0 0 136.247 158.652"><title>St. Louis Cardinals light logo</title><path d="M115.71 127.047c-5.17 9.554-13.17 10.065-14.793 10.065h-53.57v-4.427c5.83 1.328 11.64 2.276 17.192 2.63 21.578 1.373 38.88-2.947 48.71-12.18 6.495-6.09 9.786-14.1 9.786-23.804 0-13.247-9.177-26.663-29.522-29.813v-2.342h17.634l-9.105-16.433 14.973-25.155s-14.076 5.17-25.976 2.227c-7.748-1.916-26.227-5.3-43.695-5.535v-2.115H56V0H17.15v20.163h8.658v3.324C10.962 27.294 0 40.757 0 56.777c0 16.027 10.962 28.886 25.807 32.498v13.368c-2.214-.99-4.428-2.043-6.642-3.173L5.503 117.31c5.917 2.995 12.868 6.09 20.305 8.853v10.948H17.15v21.54h83.768c12.52 0 22.485-4.922 30.158-14.96l-15.365-16.643zM25.808 67.454c-3.714-2.506-5.463-7.045-5.463-11.37 0-4.283 2.15-8.086 5.463-10.526v21.896zm74.222 33.662c0 3.583-2.006 6.418-6.132 8.667-9.422 5.127-26.83 5.627-46.552.484v-19.89H73.08v11.132h20.435v-9.852c4.563 1.534 6.514 4.53 6.514 9.458m-9.523-52.354h-24.86L55.444 67.174H73.08v1.944H47.345v-25.51c11.434.076 28.404 1.148 43.16 5.154" fill="#FFF"/><path d="M116.194 134.17c-5.05 5.756-11.26 7.417-15.276 7.417h-58.05V126.94c7.418 2.01 14.91 3.454 21.954 3.904 27.476 1.753 53.74-5.735 53.74-31.514 0-12.804-9.783-24.196-29.433-25.83V62.787h14.573l-5.343-9.634H68.236l-5.345 9.634h14.577v10.808H42.87V39.16c12.96-.228 37.38.81 56.265 7.713l8.582-14.418c-5.245.834-11.674 1.206-17.753-.296-6.948-1.722-28.104-5.755-47.095-5.356V15.688h8.653V4.473H21.625v11.215h8.654v11.49c-14.555 1.993-25.806 14.5-25.806 29.6 0 15.094 11.25 26.898 25.804 28.778v23.824c-3.25-1.28-6.528-2.7-9.8-4.272l-8.064 10.54c5.397 2.533 11.482 5.072 17.865 7.337v18.602h-8.655v12.59h79.293c10.017 0 17.91-3.46 24.222-10.32l-8.946-9.688zM30.278 73.722c-8.862-1.108-14.408-8.59-14.408-17.64 0-8.463 6.174-15.55 14.408-17.344v34.983zm47.19 12.183v11.22H89.13v-10.95c6.79.744 15.376 3.616 15.376 14.94 0 16.365-28.304 22.105-61.637 12.535V85.907h34.597z" fill="#CF2734"/><path d="M130.2 154.768h-1.412v3.884h-.897v-3.884h-1.402v-.734h3.71v.734zm3.504 2.54l1.25-3.274h1.293v4.618h-.837v-3.598h-.026l-1.377 3.598h-.63l-1.373-3.598h-.02v3.598h-.84v-4.618h1.297l1.264 3.273z" fill="#FFF"/></svg>